<svg xmlns="http://www.w3.org/2000/svg" width="1em" height="1em" viewBox="0 0 32 32"><path fill="currentColor" d="M16 2c7.732 0 14 6.268 14 14s-6.268 14-14 14S2 23.732 2 16c0-4.523 2.145-8.545 5.473-11.104C8.12 4.397 9 4.895 9 5.712c0 .341-.167.66-.435.871A11.98 11.98 0 0 0 4 16c0 6.627 5.373 12 12 12s12-5.373 12-12c0-6.29-4.84-11.45-11-11.958V7a1 1 0 1 1-2 0V2.962c0-.522.403-.959.925-.962zm-7.29 8.4c-.59-1.076.612-2.278 1.688-1.688l.108.065l2.152 1.446c.826.557 1.722 1.164 2.566 1.743s1.639 1.133 2.264 1.582c.588.422 1.115.814 1.34 1.038a3 3 0 0 1-4.244 4.242c-.224-.224-.615-.751-1.037-1.339c-.449-.625-1.004-1.42-1.582-2.263a485 485 0 0 1-3.19-4.718z"/></svg>