<svg xmlns="http://www.w3.org/2000/svg" width="1em" height="1em" viewBox="0 0 28 28"><path fill="currentColor" d="M14 2c6.627 0 12 5.373 12 12s-5.373 12-12 12S2 20.627 2 14C2 9.814 4.144 6.131 7.393 3.984c.488-.323 1.107.05 1.107.635a.82.82 0 0 1-.367.673A10.49 10.49 0 0 0 3.5 14c0 5.799 4.701 10.5 10.5 10.5S24.5 19.799 24.5 14c0-5.547-4.301-10.086-9.75-10.47v2.72a.75.75 0 0 1-1.5 0V2.727l.002-.029q0-.021.004-.043A.71.71 0 0 1 13.953 2zM7.862 9.241c-.574-.877.41-1.906 1.295-1.43l.085.05l1.815 1.195c.686.454 1.423.944 2.115 1.41c.69.467 1.34.912 1.852 1.274c.485.343.913.66 1.099.846a2.5 2.5 0 0 1-3.536 3.535c-.186-.186-.502-.614-.845-1.098a98 98 0 0 1-1.274-1.852a360 360 0 0 1-2.606-3.93"/></svg>