<svg xmlns="http://www.w3.org/2000/svg" width="1em" height="1em" viewBox="0 0 28 28"><path fill="currentColor" d="M14 2c6.627 0 12 5.373 12 12s-5.373 12-12 12S2 20.627 2 14a11.98 11.98 0 0 1 5.015-9.755c.646-.463 1.485.038 1.485.833c0 .357-.182.686-.468.9A9.98 9.98 0 0 0 4 14c0 5.523 4.477 10 10 10s10-4.477 10-10c0-5.185-3.947-9.448-9-9.95V6.5a1 1 0 1 1-2 0V2.954c0-.516.396-.95.912-.954zM7.862 9.24c-.573-.877.41-1.905 1.295-1.43l.085.051l1.815 1.195c.686.454 1.423.943 2.115 1.41c.69.466 1.34.912 1.852 1.274c.484.343.912.66 1.098.846a2.5 2.5 0 0 1-3.535 3.535c-.186-.186-.503-.614-.846-1.098a103 103 0 0 1-1.273-1.852a358 358 0 0 1-2.606-3.93"/></svg>