<svg xmlns="http://www.w3.org/2000/svg" width="1em" height="1em" viewBox="0 0 32 32"><path fill="currentColor" d="M16 2c7.732 0 14 6.268 14 14s-6.268 14-14 14S2 23.732 2 16c0-4.343 1.977-8.225 5.081-10.793C7.881 4.544 9 5.172 9 6.212c0 .42-.198.81-.516 1.085A11.47 11.47 0 0 0 4.5 16c0 6.351 5.149 11.5 11.5 11.5S27.5 22.351 27.5 16c0-5.929-4.487-10.809-10.25-11.432V7.25a1.25 1.25 0 1 1-2.5 0V3.19c0-.642.49-1.184 1.132-1.189zm-7.29 8.4c-.589-1.077.613-2.278 1.688-1.688l.108.065l2.152 1.446c.826.557 1.722 1.164 2.566 1.743s1.639 1.133 2.264 1.582c.588.422 1.115.814 1.34 1.038a3 3 0 0 1-4.244 4.242c-.224-.224-.615-.751-1.037-1.339a140 140 0 0 1-1.582-2.263a485 485 0 0 1-3.19-4.718z"/></svg>