<svg xmlns="http://www.w3.org/2000/svg" width="1em" height="1em" viewBox="0 0 48 48"><path fill="currentColor" d="M24 4c11.046 0 20 8.954 20 20s-8.954 20-20 20S4 35.046 4 24c0-6.587 3.184-12.43 8.098-16.074C12.91 7.323 14 7.942 14 8.953c0 .43-.212.829-.554 1.088C9.226 13.236 6.5 18.299 6.5 24c0 9.665 7.835 17.5 17.5 17.5S41.5 33.665 41.5 24c0-9.245-7.168-16.815-16.25-17.456v5.206a1.25 1.25 0 0 1-2.5 0V5.209c0-.657.512-1.206 1.169-1.209zM13.776 16.117c-.771-1.489.854-3.114 2.343-2.342l.149.086l3.18 2.027c1.194.766 2.47 1.59 3.665 2.375s2.32 1.535 3.207 2.152c.842.585 1.586 1.126 1.923 1.463a4.5 4.5 0 0 1-6.363 6.364c-.337-.337-.879-1.082-1.464-1.924a155 155 0 0 1-2.151-3.206c-1.57-2.392-3.295-5.1-4.402-6.846z"/></svg>