<svg xmlns="http://www.w3.org/2000/svg" width="1em" height="1em" viewBox="0 0 48 48"><path fill="currentColor" d="M24 4c11.046 0 20 8.954 20 20s-8.954 20-20 20S4 35.046 4 24c0-6.412 3.018-12.12 7.71-15.78c.968-.754 2.29-.007 2.29 1.22c0 .51-.247.986-.645 1.305A16.97 16.97 0 0 0 7 24c0 9.389 7.611 17 17 17s17-7.611 17-17c0-8.883-6.814-16.174-15.5-16.934V12a1.5 1.5 0 0 1-3 0V5.44c0-.78.602-1.435 1.383-1.44zM13.776 16.117c-.771-1.489.854-3.114 2.343-2.342l.149.086l3.18 2.027c1.194.766 2.47 1.59 3.665 2.375s2.32 1.535 3.207 2.152c.842.585 1.586 1.126 1.923 1.463a4.5 4.5 0 0 1-6.363 6.364c-.337-.337-.879-1.082-1.464-1.924a155 155 0 0 1-2.151-3.206c-1.57-2.392-3.295-5.1-4.402-6.846z"/></svg>