<svg xmlns="http://www.w3.org/2000/svg" width="1em" height="1em" viewBox="0 0 20 20"><path fill="currentColor" d="M10 2a8 8 0 1 1-5.152 1.882C5.326 3.478 6 3.856 6 4.482c0 .25-.117.484-.305.65a6.5 6.5 0 1 0 5.055-1.588V4.75a.75.75 0 0 1-1.5 0V2.712c0-.383.293-.708.676-.712zM6.04 6.943c-.392-.558.222-1.232.791-.968l.112.065l2.593 1.84c.45.323.87.629 1.196.872c.31.23.577.435.683.54a1.501 1.501 0 0 1-2.122 2.123c-.106-.106-.31-.373-.541-.683a92 92 0 0 1-.872-1.196c-.647-.9-1.374-1.93-1.84-2.593"/></svg>